<svg width="57" height="54" viewBox="0 0 57 54" fill="none" xmlns="http://www.w3.org/2000/svg">
<path d="M15.675 0C11.5177 0 7.53073 1.87652 4.5911 5.21675C1.65147 8.55698 0 13.0873 0 17.8111C0 19.4303 0.2565 21.0495 0.627 22.6687H12.255L15.8745 11.7553C16.7295 9.16462 20.0925 8.90555 21.1755 11.7553L27.075 29.1454L28.7565 24.5469C29.127 23.4783 30.1245 22.6687 31.35 22.6687H56.373C56.7435 21.0495 57 19.4303 57 17.8111C57 13.0873 55.3485 8.55698 52.4089 5.21675C49.4693 1.87652 45.4823 0 41.325 0C36.024 0 31.35 3.01169 28.5 7.57781C25.65 3.01169 20.976 0 15.675 0ZM2.85 27.5262C2.09413 27.5262 1.36922 27.8674 0.834746 28.4747C0.300267 29.0821 0 29.9057 0 30.7646C0 31.6235 0.300267 32.4472 0.834746 33.0545C1.36922 33.6618 2.09413 34.003 2.85 34.003H9.804L25.65 51.8141C28.5 54.7286 28.5 54.7286 31.35 51.8141L47.196 34.003H54.15C54.9059 34.003 55.6308 33.6618 56.1653 33.0545C56.6997 32.4472 57 31.6235 57 30.7646C57 29.9057 56.6997 29.0821 56.1653 28.4747C55.6308 27.8674 54.9059 27.5262 54.15 27.5262H32.49L29.8395 34.9745C28.6995 38.2453 25.422 37.7919 24.3675 35.0717L18.525 17.8111L15.789 25.3565C15.3615 26.5871 14.3925 27.5262 13.11 27.5262H2.85Z" fill="#00796B"/>
</svg>
